<svg viewBox="0 0 90 44" fill="none" xmlns="http://www.w3.org/2000/svg">
<path d="M6.60881 16.5435L7.11122 16.9393L7.44725 17.2069L7.46363 17.2185L7.46755 17.2248L28.9558 34.2277C28.9629 34.232 28.9668 34.2383 28.9719 34.2395C28.977 34.2407 28.9793 34.2437 28.9812 34.2468L28.9844 34.2449C28.9912 34.2494 28.9912 34.2494 28.9931 34.2526C28.9939 34.2544 28.9952 34.2561 28.9968 34.2574C28.9983 34.2587 29.0002 34.2596 29.0021 34.2601L29.004 34.2633C29.0086 34.2657 29.0124 34.2694 29.0151 34.2739L29.0202 34.2751L30.0314 35.0758L16.8674 31.985C13.5153 31.1969 10.5891 29.1618 8.68354 26.2936C6.77802 23.4253 6.03617 19.9391 6.60881 16.5435Z" fill="url(#paint0_linear_102_59)"/>
<path d="M30.0569 35.06L29.7897 33.7982C29.7889 33.7904 29.7871 33.7827 29.7846 33.7752C29.7833 33.7727 29.7829 33.7699 29.7835 33.7671C29.7806 33.7628 29.779 33.7578 29.7788 33.7526L29.782 33.7506L29.773 33.7213L29.7761 33.7193L24.1227 6.96016C24.119 6.94451 24.1165 6.9286 24.115 6.91254C24.1138 6.90478 24.1121 6.89707 24.1099 6.88951L24.1079 6.88636L24.1088 6.88148L23.887 5.84034C25.7943 6.41762 27.5508 7.40868 29.031 8.74287C30.5112 10.077 31.6788 11.7214 32.4503 13.5587L32.4543 13.5651C32.4534 13.57 32.4534 13.57 32.4553 13.5732C33.5617 16.2042 33.804 19.1185 33.1473 21.8961L30.0602 35.0448L30.0569 35.06Z" fill="url(#paint1_linear_102_59)"/>
<path d="M6.60883 16.5435C6.65827 16.2641 6.7125 15.986 6.77846 15.7051C7.18324 13.973 7.92615 12.3379 8.96449 10.8937C10.0028 9.44947 11.3161 8.22454 12.8291 7.28919L30.0518 35.0806L30.0314 35.0758L29.0202 34.2751L29.0151 34.2739C29.0124 34.2694 29.0087 34.2657 29.0041 34.2633L29.0021 34.2601C29.0002 34.2596 28.9983 34.2587 28.9968 34.2574C28.9952 34.2561 28.9939 34.2544 28.9931 34.2526C28.9912 34.2494 28.9912 34.2494 28.9844 34.2449L28.9719 34.2395C28.9668 34.2383 28.9629 34.232 28.9558 34.2277L7.46755 17.2248L7.46364 17.2185L7.44724 17.2069L7.11121 16.9393L6.60883 16.5435Z" fill="url(#paint2_linear_102_59)"/>
<path d="M30.0517 35.0807L12.829 7.28927C14.3394 6.34926 16.0208 5.7175 17.7765 5.43036C19.5321 5.14322 21.3272 5.2064 23.0583 5.61623C23.3396 5.682 23.6127 5.75717 23.885 5.83726L23.8869 5.84041L24.1087 6.88153L24.1078 6.88644L24.1098 6.8896C24.1121 6.89714 24.1138 6.90481 24.1149 6.91263C24.1164 6.92863 24.119 6.94455 24.1226 6.96024L29.776 33.7194L29.7729 33.7214C29.7736 33.732 29.7756 33.7425 29.7787 33.7526C29.7789 33.7578 29.7805 33.7629 29.7834 33.7672C29.7828 33.7699 29.7832 33.7728 29.7845 33.7753C29.7871 33.7827 29.7888 33.7904 29.7896 33.7983L30.0568 35.06L30.0517 35.0807Z" fill="url(#paint3_linear_102_59)"/>
<g style="mix-blend-mode:screen" opacity="0.4">
<path d="M30.0611 35.0461C30.0746 34.8849 30.213 33.5508 30.5358 31.6353C30.6179 31.1261 30.7124 30.5743 30.8224 29.991C30.9324 29.4078 31.0413 28.7947 31.1754 28.1659C31.3096 27.5372 31.4325 26.8761 31.5821 26.2159C31.7317 25.5558 31.882 24.882 32.0337 24.2118C32.1994 23.5417 32.3616 22.8737 32.5215 22.216C32.603 21.8904 32.6817 21.5666 32.7593 21.248C32.823 20.9422 32.8838 20.6383 32.9268 20.3279C33.0126 19.7341 33.0675 19.1362 33.0913 18.5367C33.1072 17.9637 33.0873 17.4174 33.0546 16.9138C32.9908 16.0951 32.8664 15.2822 32.6824 14.4818C32.6107 14.1901 32.5612 13.9545 32.517 13.7986C32.4843 13.6835 32.4642 13.6087 32.4565 13.5742C33.5628 16.2052 33.8052 19.1196 33.1485 21.8972L30.0611 35.0461Z" fill="white"/>
</g>
<g style="mix-blend-mode:multiply" opacity="0.25">
<path d="M6.6089 16.5435C6.65834 16.264 6.71258 15.986 6.77854 15.705C7.38907 13.1134 8.74871 10.7588 10.688 8.9344C12.6274 7.11009 15.0607 5.89678 17.6847 5.4456C16.3411 5.77775 15.0507 6.29678 13.8514 6.98746C13.5522 7.15976 13.2663 7.34568 12.9817 7.53515C12.7076 7.72682 12.4114 7.93217 12.1574 8.14201C11.8891 8.34314 11.6354 8.57461 11.3831 8.80078C11.1373 9.03169 10.8957 9.26872 10.6603 9.51501C10.4344 9.76408 10.2022 10.0084 9.99317 10.2776C9.77862 10.5372 9.58407 10.8149 9.38907 11.0841C9.20321 11.3695 9.01496 11.6433 8.84669 11.9353C8.66941 12.2198 8.51723 12.5236 8.36461 12.819C8.21722 13.1242 8.0784 13.4285 7.95719 13.7393C7.83597 14.0502 7.72087 14.3659 7.61857 14.6869L7.47114 15.1667L7.34863 15.6529L7.31473 15.7743L7.30425 15.8201L7.29181 15.8846L7.23979 16.1394L7.15033 16.6008L7.14509 16.6346C7.13479 16.737 7.12222 16.8365 7.11129 16.9393C7.07029 17.2746 7.02733 17.6068 6.99775 17.9394C6.99766 18.376 6.97278 18.8148 6.98606 19.2518C7.02444 19.6863 7.02631 20.126 7.092 20.5568L7.20154 21.2047L7.25426 21.53C7.27549 21.6347 7.30694 21.7418 7.3336 21.8475C7.42984 22.275 7.55237 22.6962 7.70046 23.1086L7.92189 23.7265C7.99779 23.9319 8.08463 24.1331 8.18192 24.3293L8.45621 24.9275C8.5589 25.1214 8.67617 25.3107 8.78234 25.5024C8.8945 25.6904 8.99373 25.8865 9.1173 26.0718L9.49793 26.6085C9.7457 26.9746 10.0176 27.3238 10.3116 27.6538L10.5215 27.9079C10.5971 27.9877 10.6758 28.0654 10.7546 28.1432L11.2243 28.6117C11.3807 28.7692 11.5466 28.9172 11.721 29.0546L12.2321 29.4843C12.5772 29.7593 12.9554 29.9964 13.3171 30.2567L14.4814 30.9233C14.8913 31.1058 15.2985 31.2986 15.7127 31.4741C16.1396 31.6198 16.5638 31.776 16.9963 31.9183L18.308 32.3232L16.8675 31.985C13.5153 31.1968 10.5891 29.1618 8.68366 26.2936C6.77814 23.4253 6.03626 19.9391 6.6089 16.5435Z" fill="black"/>
</g>
<path d="M40.072 24.636V25.524H37.792V33H36.7V25.524H34.408V24.636H40.072ZM44.5242 33.108C43.9082 33.108 43.3482 32.968 42.8442 32.688C42.3482 32.408 41.9562 32.012 41.6682 31.5C41.3882 30.98 41.2482 30.38 41.2482 29.7C41.2482 29.028 41.3922 28.436 41.6802 27.924C41.9762 27.404 42.3762 27.008 42.8802 26.736C43.3842 26.456 43.9482 26.316 44.5722 26.316C45.1962 26.316 45.7602 26.456 46.2642 26.736C46.7682 27.008 47.1642 27.4 47.4522 27.912C47.7482 28.424 47.8962 29.02 47.8962 29.7C47.8962 30.38 47.7442 30.98 47.4402 31.5C47.1442 32.012 46.7402 32.408 46.2282 32.688C45.7162 32.968 45.1482 33.108 44.5242 33.108ZM44.5242 32.148C44.9162 32.148 45.2842 32.056 45.6282 31.872C45.9722 31.688 46.2482 31.412 46.4562 31.044C46.6722 30.676 46.7802 30.228 46.7802 29.7C46.7802 29.172 46.6762 28.724 46.4682 28.356C46.2602 27.988 45.9882 27.716 45.6522 27.54C45.3162 27.356 44.9522 27.264 44.5602 27.264C44.1602 27.264 43.7922 27.356 43.4562 27.54C43.1282 27.716 42.8642 27.988 42.6642 28.356C42.4642 28.724 42.3642 29.172 42.3642 29.7C42.3642 30.236 42.4602 30.688 42.6522 31.056C42.8522 31.424 43.1162 31.7 43.4442 31.884C43.7722 32.06 44.1322 32.148 44.5242 32.148ZM49.164 29.688C49.164 29.016 49.3 28.428 49.572 27.924C49.844 27.412 50.216 27.016 50.688 26.736C51.168 26.456 51.704 26.316 52.296 26.316C52.808 26.316 53.284 26.436 53.724 26.676C54.164 26.908 54.5 27.216 54.732 27.6V24.12H55.836V33H54.732V31.764C54.516 32.156 54.196 32.48 53.772 32.736C53.348 32.984 52.852 33.108 52.284 33.108C51.7 33.108 51.168 32.964 50.688 32.676C50.216 32.388 49.844 31.984 49.572 31.464C49.3 30.944 49.164 30.352 49.164 29.688ZM54.732 29.7C54.732 29.204 54.632 28.772 54.432 28.404C54.232 28.036 53.96 27.756 53.616 27.564C53.28 27.364 52.908 27.264 52.5 27.264C52.092 27.264 51.72 27.36 51.384 27.552C51.048 27.744 50.78 28.024 50.58 28.392C50.38 28.76 50.28 29.192 50.28 29.688C50.28 30.192 50.38 30.632 50.58 31.008C50.78 31.376 51.048 31.66 51.384 31.86C51.72 32.052 52.092 32.148 52.5 32.148C52.908 32.148 53.28 32.052 53.616 31.86C53.96 31.66 54.232 31.376 54.432 31.008C54.632 30.632 54.732 30.196 54.732 29.7ZM63.9213 29.46C63.9213 29.668 63.9093 29.888 63.8853 30.12H58.6293C58.6693 30.768 58.8893 31.276 59.2893 31.644C59.6973 32.004 60.1893 32.184 60.7653 32.184C61.2373 32.184 61.6293 32.076 61.9413 31.86C62.2613 31.636 62.4853 31.34 62.6133 30.972H63.7893C63.6133 31.604 63.2613 32.12 62.7333 32.52C62.2053 32.912 61.5493 33.108 60.7653 33.108C60.1413 33.108 59.5813 32.968 59.0853 32.688C58.5973 32.408 58.2133 32.012 57.9333 31.5C57.6533 30.98 57.5133 30.38 57.5133 29.7C57.5133 29.02 57.6493 28.424 57.9213 27.912C58.1933 27.4 58.5733 27.008 59.0613 26.736C59.5573 26.456 60.1253 26.316 60.7653 26.316C61.3893 26.316 61.9413 26.452 62.4213 26.724C62.9013 26.996 63.2693 27.372 63.5253 27.852C63.7893 28.324 63.9213 28.86 63.9213 29.46ZM62.7933 29.232C62.7933 28.816 62.7013 28.46 62.5173 28.164C62.3333 27.86 62.0813 27.632 61.7613 27.48C61.4493 27.32 61.1013 27.24 60.7173 27.24C60.1653 27.24 59.6933 27.416 59.3013 27.768C58.9173 28.12 58.6973 28.608 58.6413 29.232H62.7933ZM71.4827 24.576V26.22H69.2507V33H67.1987V26.22H64.9667V24.576H71.4827ZM74.8046 27.42C75.0446 27.052 75.3446 26.764 75.7046 26.556C76.0646 26.34 76.4646 26.232 76.9046 26.232V28.404H76.3406C75.8286 28.404 75.4446 28.516 75.1886 28.74C74.9326 28.956 74.8046 29.34 74.8046 29.892V33H72.7526V26.304H74.8046V27.42ZM79.1574 25.608C78.7974 25.608 78.5014 25.504 78.2694 25.296C78.0454 25.08 77.9334 24.816 77.9334 24.504C77.9334 24.184 78.0454 23.92 78.2694 23.712C78.5014 23.496 78.7974 23.388 79.1574 23.388C79.5094 23.388 79.7974 23.496 80.0214 23.712C80.2534 23.92 80.3694 24.184 80.3694 24.504C80.3694 24.816 80.2534 25.08 80.0214 25.296C79.7974 25.504 79.5094 25.608 79.1574 25.608ZM80.1774 26.304V33H78.1254V26.304H80.1774ZM83.9565 27.252C84.1565 26.94 84.4325 26.688 84.7845 26.496C85.1365 26.304 85.5485 26.208 86.0205 26.208C86.5725 26.208 87.0725 26.348 87.5205 26.628C87.9685 26.908 88.3205 27.308 88.5765 27.828C88.8405 28.348 88.9725 28.952 88.9725 29.64C88.9725 30.328 88.8405 30.936 88.5765 31.464C88.3205 31.984 87.9685 32.388 87.5205 32.676C87.0725 32.956 86.5725 33.096 86.0205 33.096C85.5565 33.096 85.1445 33 84.7845 32.808C84.4325 32.616 84.1565 32.368 83.9565 32.064V36.192H81.9045V26.304H83.9565V27.252ZM86.8845 29.64C86.8845 29.128 86.7405 28.728 86.4525 28.44C86.1725 28.144 85.8245 27.996 85.4085 27.996C85.0005 27.996 84.6525 28.144 84.3645 28.44C84.0845 28.736 83.9445 29.14 83.9445 29.652C83.9445 30.164 84.0845 30.568 84.3645 30.864C84.6525 31.16 85.0005 31.308 85.4085 31.308C85.8165 31.308 86.1645 31.16 86.4525 30.864C86.7405 30.56 86.8845 30.152 86.8845 29.64Z" fill="#374A7B"/>
<defs>
<linearGradient id="paint0_linear_102_59" x1="28.4116" y1="35.5178" x2="8.39139" y2="37.5128" gradientUnits="userSpaceOnUse">
<stop stop-color="#00F3FF"/>
<stop offset="0.238" stop-color="#00EFFC"/>
<stop offset="0.44" stop-color="#00E5F4"/>
<stop offset="0.629" stop-color="#00D3E7"/>
<stop offset="0.81" stop-color="#00BAD4"/>
<stop offset="0.983" stop-color="#009BBC"/>
<stop offset="1" stop-color="#0098BA"/>
</linearGradient>
<linearGradient id="paint1_linear_102_59" x1="30.9409" y1="35.0739" x2="42.6215" y2="17.0862" gradientUnits="userSpaceOnUse">
<stop stop-color="#F87903"/>
<stop offset="0.074" stop-color="#F87904"/>
<stop offset="0.293" stop-color="#F98702"/>
<stop offset="0.501" stop-color="#FA9601"/>
<stop offset="0.695" stop-color="#FB9700"/>
<stop offset="0.867" stop-color="#FBC400"/>
<stop offset="1" stop-color="#FCC500"/>
</linearGradient>
<linearGradient id="paint2_linear_102_59" x1="23.7529" y1="27.8679" x2="8.14617" y2="28.3977" gradientUnits="userSpaceOnUse">
<stop stop-color="#08C6E0"/>
<stop offset="0.238" stop-color="#00EFFC"/>
<stop offset="0.44" stop-color="#00E5F4"/>
<stop offset="0.629" stop-color="#00D3E7"/>
<stop offset="0.81" stop-color="#00BAD4"/>
<stop offset="0.983" stop-color="#009BBC"/>
<stop offset="1" stop-color="#0098BA"/>
</linearGradient>
<linearGradient id="paint3_linear_102_59" x1="25.6745" y1="23.7922" x2="32.4545" y2="9.9916" gradientUnits="userSpaceOnUse">
<stop stop-color="#F87904"/>
<stop offset="0.074" stop-color="#F87903"/>
<stop offset="0.293" stop-color="#F98702"/>
<stop offset="0.501" stop-color="#FA9601"/>
<stop offset="0.695" stop-color="#FB9700"/>
<stop offset="0.867" stop-color="#FBC400"/>
<stop offset="1" stop-color="#FCC500"/>
</linearGradient>
</defs>
</svg>
